<svg width="96" height="96" xmlns="http://www.w3.org/2000/svg" xmlns:xlink="http://www.w3.org/1999/xlink" xml:space="preserve" overflow="hidden"><defs><clipPath id="clip0"><rect x="0" y="0" width="96" height="96"/></clipPath></defs><g clip-path="url(#clip0)"><path d="M27 91 70 91C72.2091 91 74 89.2091 74 87L23 87C23 89.2091 24.7909 91 27 91Z" fill="#E7E6E6"/><path d="M43.91 42.8C41.64 38.57 38.24 36.17 34.18 32.51 29.43 28 27 17.28 21.56 19 21.379 19.0545 21.2019 19.1213 21.03 19.2 21.6447 16.5595 23.1013 14.1904 25.18 12.45L23.67 10.45C21.9152 11.893 20.5014 13.7063 19.53 15.76 19.155 14.4816 18.423 13.3368 17.42 12.46 15.07 10.53 11.42 11.13 11.42 11.13 11.42 11.13 11.6 14.81 13.99 16.73 15.3498 17.7398 17.0184 18.2453 18.71 18.16 18.5624 18.795 18.4621 19.4401 18.41 20.09 18.0698 20.109 17.7335 20.1729 17.41 20.28 11.18 22.21 16.01 32.17 14.65 38.58 13.7848 41.6356 13.0739 44.7329 12.52 47.86 14.2941 48.4215 16.0966 48.8888 17.92 49.26L18.07 49.26 19.55 49.55 19.84 49.61 21.41 49.88 21.74 49.94 23.44 50.21 23.73 50.21 25.61 50.48 25.8 50.48C32.7894 51.3538 39.8262 51.7947 46.87 51.8L46.87 51.8C46.5129 48.6283 45.5052 45.5645 43.91 42.8Z" fill="#E7E6E6"/><path d="M85.66 49.18 85.44 48.67C85.4449 48.7666 85.4449 48.8634 85.44 48.96 85.44 49.08 85.39 49.19 85.36 49.31L85.68 49.19Z" fill="#E7E6E6"/><path d="M84.72 44.16C85.4106 45.5559 85.6616 47.1284 85.44 48.67L85.27 49.26C82.0587 50.4477 78.735 51.3054 75.35 51.82 74.41 51.99 73.44 52.14 72.45 52.29L70.81 52.5 69.4 52.69C68.62 52.79 67.82 52.87 67.02 52.95L66.23 53.04 63.23 53.3 62.91 53.3 59.54 53.53 59.54 53.53C56.09 53.73 52.54 53.84 48.86 53.86L48 53.86C28.79 53.86 16 51.3 10.71 49.24L10.32 49.24C10.4398 47.5373 10.7041 45.8479 11.11 44.19 6.62 45.67 4 47.4 4 49.26 4 63.13 11.29 75.37 22.53 82.84L73.47 82.84C84.71 75.37 92 63.13 92 49.26 92 47.38 89.32 45.63 84.72 44.16Z" fill="#E7E6E6"/><path d="M66.21 31.11C67.1989 30.4246 68.3308 29.9732 69.52 29.79 69.7747 26.5858 67.3836 23.7818 64.1794 23.5272 60.9752 23.2725 58.1713 25.6635 57.9166 28.8677 57.6621 32.0691 60.0489 34.8716 63.25 35.13 63.771 33.5026 64.8106 32.0906 66.21 31.11Z" fill="#E7E6E6"/><path d="M87.78 36.75C87.78 39.9643 85.1743 42.57 81.96 42.57 78.7457 42.57 76.14 39.9643 76.14 36.75 76.14 33.5357 78.7457 30.93 81.96 30.93 85.1743 30.93 87.78 33.5357 87.78 36.75Z" fill="#E7E6E6"/><path d="M75.94 31.77C76.3872 31.2232 76.909 30.7418 77.49 30.34 78.0511 29.9479 78.6635 29.6349 79.31 29.41 85.13 25.48 88.44 27.3 88.48 27.33L89 26.47 89.53 25.62C87.8158 24.7651 85.8454 24.5763 84 25.09 82.4555 22.965 80.4832 21.1868 78.21 19.87L78.35 19.65C79.221 18.3107 79.7054 16.757 79.75 15.16 80.07 11.89 76.75 8.89 76.75 8.89 75.8947 9.57755 75.2102 10.4538 74.75 11.45 74.4931 11.0922 74.2054 10.7575 73.89 10.45 70.4 7 63.38 7.07 63.38 7.07 62.8423 9.43352 63.0591 11.9061 64 14.14L63.79 14.14C57.1 13.49 52.29 18.87 52.29 18.87 52.3801 19.4444 52.5309 20.0075 52.74 20.55 53.0708 20.498 53.4051 20.4713 53.74 20.47 55.8747 20.4717 57.9159 21.346 59.39 22.89 62.9428 20.4636 67.7899 21.3767 70.2163 24.9295 71.1886 26.3531 71.6612 28.059 71.56 29.78 73.1945 29.9606 74.7288 30.6577 75.94 31.77ZM77.79 22C79.3877 22.9928 80.8102 24.243 82 25.7 80.8064 26.1733 79.6639 26.7663 78.59 27.47 78.8102 26.067 78.6372 24.6305 78.09 23.32 77.8518 22.9232 77.7467 22.4607 77.79 22Z" fill="#E7E6E6"/><path d="M82 44.56C79.7818 44.571 77.663 43.6406 76.17 42 73.0868 42.8269 71.2577 45.9968 72.0846 49.08 72.1953 49.4926 72.3514 49.8918 72.55 50.27 73.44 50.13 74.33 50 75.17 49.85 77.9958 49.3914 80.7835 48.7229 83.51 47.85 83.5608 46.6751 83.2502 45.5129 82.62 44.52 82.4 44.53 82.19 44.56 82 44.56Z" fill="#E7E6E6"/><path d="M62.89 37.1C60.6419 36.8615 58.607 35.6617 57.31 33.81 57.1072 33.5138 56.9267 33.203 56.77 32.88 56.2802 33.0449 55.8158 33.2771 55.39 33.57 52.7545 35.4003 52.1017 39.0207 53.9321 41.6562 55.1205 43.3675 57.1344 44.3114 59.21 44.13 59.7536 43.2911 60.457 42.5673 61.28 42 62.0004 41.5012 62.8025 41.1323 63.65 40.91 63.0756 39.7257 62.814 38.414 62.89 37.1Z" fill="#E7E6E6"/><path d="M58.05 47C58.1089 46.6925 58.1857 46.3886 58.28 46.09 56.2309 45.9759 54.309 45.0599 52.93 43.54 49.8425 44.3722 48.0142 47.5498 48.8464 50.6374 48.9589 51.0547 49.1177 51.4581 49.32 51.84 52.49 51.84 55.61 51.73 58.64 51.57 57.9808 50.1428 57.7749 48.5478 58.05 47Z" fill="#E7E6E6"/><path d="M70.25 45.31C68.1628 45.1965 66.2077 44.2531 64.82 42.69 63.9529 42.8315 63.131 43.174 62.42 43.69 59.8821 45.4545 59.1778 48.9013 60.82 51.52 64.21 51.3 67.45 50.98 70.47 50.59 69.7878 48.9085 69.7101 47.0424 70.25 45.31Z" fill="#E7E6E6"/><path d="M71.17 43.31C71.7162 42.4732 72.4191 41.7499 73.24 41.18 73.7867 40.8075 74.378 40.5051 75 40.28 74.2237 38.7717 73.9637 37.0503 74.26 35.38 74.3795 34.7272 74.5811 34.0922 74.86 33.49 72.6337 31.1792 68.9557 31.1107 66.6448 33.3369 64.334 35.5632 64.2655 39.2413 66.4918 41.5521 67.7066 42.8131 69.4254 43.4589 71.17 43.31Z" fill="#E7E6E6"/><path d="M51.38 35.72C49.9656 35.2825 48.7037 34.454 47.74 33.33 45.2469 33.1853 42.9464 34.6692 42.05 37 43.4757 38.4595 44.6938 40.1083 45.67 41.9 46.2023 42.8965 46.6796 43.9214 47.1 44.97 47.3765 44.9851 47.6535 44.9851 47.93 44.97 48.8438 43.5736 50.194 42.5188 51.77 41.97 50.7751 40.0319 50.6338 37.7667 51.38 35.72Z" fill="#E7E6E6"/><path d="M57.84 24.2C55.5942 21.9081 51.9157 21.8707 49.6238 24.1165 47.3319 26.3622 47.2945 30.0407 49.5403 32.3326 50.2984 33.1063 51.2578 33.6527 52.31 33.91 52.8279 33.1295 53.4856 32.4514 54.25 31.91 54.8217 31.5289 55.4401 31.2231 56.09 31 55.5657 28.5841 56.2146 26.0626 57.84 24.2Z" fill="#E7E6E6"/></g></svg>